<?xml version="1.0" encoding="UTF-8"?>
<!DOCTYPE svg PUBLIC "-//W3C//DTD SVG 1.1//EN" "http://www.w3.org/Graphics/SVG/1.1/DTD/svg11.dtd">
<svg xmlns="http://www.w3.org/2000/svg" version="1.1" width="563px" height="563px" style="shape-rendering:geometricPrecision; text-rendering:geometricPrecision; image-rendering:optimizeQuality; fill-rule:evenodd; clip-rule:evenodd" xmlns:xlink="http://www.w3.org/1999/xlink">
<g><path style="opacity:0.496" fill="#851c9e" d="M 424.5,214.5 C 425.5,214.5 426.5,214.5 427.5,214.5C 427.762,209.524 425.762,205.691 421.5,203C 409.555,196.664 397.555,196.331 385.5,202C 376.88,209.192 373.38,218.358 375,229.5C 376.504,234.852 378.004,240.185 379.5,245.5C 378.167,245.5 376.833,245.5 375.5,245.5C 373.397,236.95 372.564,228.284 373,219.5C 376.261,204.071 385.761,196.071 401.5,195.5C 415.459,194.966 425.459,200.8 431.5,213C 429.796,216.963 427.463,217.463 424.5,214.5 Z"/></g>
<g><path style="opacity:0.631" fill="#f35fc0" d="M 424.5,214.5 C 417.901,202.704 407.901,198.204 394.5,201C 392.68,201.2 391.347,202.034 390.5,203.5C 389.564,204.974 388.23,205.974 386.5,206.5C 381.089,210.492 378.422,215.992 378.5,223C 380.404,236.201 382.404,249.367 384.5,262.5C 383.833,262.833 383.167,263.167 382.5,263.5C 382.477,257.288 381.81,251.288 380.5,245.5C 380.167,245.5 379.833,245.5 379.5,245.5C 378.004,240.185 376.504,234.852 375,229.5C 373.38,218.358 376.88,209.192 385.5,202C 397.555,196.331 409.555,196.664 421.5,203C 425.762,205.691 427.762,209.524 427.5,214.5C 426.5,214.5 425.5,214.5 424.5,214.5 Z"/></g>
<g><path style="opacity:0.548" fill="#85239f" d="M 321.5,264.5 C 321.5,265.5 321.5,266.5 321.5,267.5C 320.512,272.192 321.846,275.859 325.5,278.5C 325.842,279.338 326.508,279.672 327.5,279.5C 327.5,280.5 327.5,281.5 327.5,282.5C 324.805,282.067 322.638,280.734 321,278.5C 320.316,279.784 320.483,280.951 321.5,282C 323.407,283.122 325.407,283.955 327.5,284.5C 327.833,285.167 328.167,285.833 328.5,286.5C 327.5,286.5 326.5,286.5 325.5,286.5C 324.003,285.694 322.336,285.028 320.5,284.5C 319.893,284.624 319.56,284.957 319.5,285.5C 318.85,285.804 318.183,286.137 317.5,286.5C 316.506,281.544 316.173,276.544 316.5,271.5C 318.067,268.083 318.567,264.417 318,260.5C 317.617,261.056 317.117,261.389 316.5,261.5C 315.833,261.5 315.167,261.5 314.5,261.5C 315.75,258.994 316.416,256.327 316.5,253.5C 317.244,250.05 315.91,248.384 312.5,248.5C 311.244,243.222 309.744,243.222 308,248.5C 306.304,256.095 304.97,263.761 304,271.5C 302.194,276.418 300.694,281.418 299.5,286.5C 298.25,286.423 297.417,285.756 297,284.5C 296.833,281.167 296.667,277.833 296.5,274.5C 296.514,270.761 297.18,267.428 298.5,264.5C 296.626,289.51 297.959,289.51 302.5,264.5C 304.048,264.179 304.715,263.179 304.5,261.5C 304.98,256.47 305.647,251.47 306.5,246.5C 307.573,245.749 307.74,244.749 307,243.5C 306.329,244.252 305.496,244.586 304.5,244.5C 311.656,235.99 317.656,226.657 322.5,216.5C 322.167,216.167 321.833,215.833 321.5,215.5C 312.399,220.931 305.399,228.265 300.5,237.5C 299.209,237.737 298.209,237.404 297.5,236.5C 298.506,236.062 298.506,235.396 297.5,234.5C 298.922,234.291 300.255,233.791 301.5,233C 305.589,226.907 310.422,221.407 316,216.5C 316.833,214.833 317.667,213.167 318.5,211.5C 313.966,201.87 316.966,197.703 327.5,199C 335.184,202.301 337.684,207.801 335,215.5C 332.966,217.032 330.799,218.365 328.5,219.5C 326.802,218.319 325.135,218.319 323.5,219.5C 320.041,226.925 315.708,233.758 310.5,240C 317.094,246.918 320.761,255.085 321.5,264.5 Z"/></g>
<g><path style="opacity:0.631" fill="#dad5db" d="M 321.5,200.5 C 328.651,201.169 333.151,204.836 335,211.5C 328.145,212.207 323.312,209.207 320.5,202.5C 320.863,201.817 321.196,201.15 321.5,200.5 Z"/></g>
<g><path style="opacity:0.464" fill="#851d9f" d="M 424.5,214.5 C 420.765,212.275 417.432,209.442 414.5,206C 406.827,202.379 398.827,201.546 390.5,203.5C 391.347,202.034 392.68,201.2 394.5,201C 407.901,198.204 417.901,202.704 424.5,214.5 Z"/></g>
<g><path style="opacity:0.631" fill="#bf60db" d="M 317.5,206.5 C 317.897,205.475 318.563,205.308 319.5,206C 322.782,210.631 327.115,213.631 332.5,215C 330.244,216.867 327.91,216.867 325.5,215C 322.024,212.843 319.357,210.01 317.5,206.5 Z"/></g>
<g><path style="opacity:0.536" fill="#841d9e" d="M 386.5,206.5 C 382.909,211.352 381.242,216.852 381.5,223C 384.465,235.33 386.465,247.83 387.5,260.5C 386.71,261.401 385.71,262.068 384.5,262.5C 382.404,249.367 380.404,236.201 378.5,223C 378.422,215.992 381.089,210.492 386.5,206.5 Z"/></g>
<g><path style="opacity:0.631" fill="#dad6db" d="M 304.5,244.5 C 302.742,245.999 300.909,246.332 299,245.5C 298.572,242.678 299.072,240.012 300.5,237.5C 305.399,228.265 312.399,220.931 321.5,215.5C 321.833,215.833 322.167,216.167 322.5,216.5C 317.656,226.657 311.656,235.99 304.5,244.5 Z"/></g>
<g><path style="opacity:0.577" fill="#8722a0" d="M 295.5,233.5 C 290.827,232.777 286.16,231.943 281.5,231C 282.308,230.692 282.975,230.192 283.5,229.5C 270.489,229.001 258.156,231.834 246.5,238C 238.797,243.944 234.797,251.778 234.5,261.5C 233.833,261.5 233.167,261.5 232.5,261.5C 234.092,246.161 242.092,235.661 256.5,230C 264.364,227.822 272.364,226.489 280.5,226C 268.291,223.576 256.958,225.909 246.5,233C 242.803,235.842 239.137,238.675 235.5,241.5C 240.582,233.943 247.582,228.776 256.5,226C 262.915,224.369 269.415,223.203 276,222.5C 279.28,222.704 282.28,223.704 285,225.5C 286.83,222.185 288.33,218.851 289.5,215.5C 289.764,211.607 290.431,207.774 291.5,204C 291.183,201.672 290.016,199.839 288,198.5C 286.167,189.667 289.667,186.167 298.5,188C 305.339,190.157 307.839,194.657 306,201.5C 303.96,203.353 301.627,204.686 299,205.5C 297.947,211.661 296.28,217.661 294,223.5C 293.153,227.072 293.653,230.406 295.5,233.5 Z"/></g>
<g><path style="opacity:0.631" fill="#dad5db" d="M 289.5,215.5 C 291.2,212.074 292.534,208.407 293.5,204.5C 294.325,203.614 295.325,203.281 296.5,203.5C 295.877,212.329 293.543,220.662 289.5,228.5C 289.167,227.167 288.833,225.833 288.5,224.5C 288.966,221.508 289.299,218.508 289.5,215.5 Z"/></g>
<g><path style="opacity:0.631" fill="#c464df" d="M 291.5,198.5 C 291.56,197.957 291.893,197.624 292.5,197.5C 296.384,198.841 300.384,199.675 304.5,200C 303.471,201.698 301.971,202.532 300,202.5C 296.82,201.826 293.986,200.492 291.5,198.5 Z"/></g>
<g><path style="opacity:0.631" fill="#dad7db" d="M 290.5,189.5 C 294.463,189.089 298.13,189.922 301.5,192C 303.607,193.264 304.607,195.097 304.5,197.5C 297.961,197.903 293.294,195.236 290.5,189.5 Z"/></g>
<g><path style="opacity:0.631" fill="#f560c1" d="M 295.5,233.5 C 296.492,233.328 297.158,233.662 297.5,234.5C 298.506,235.396 298.506,236.062 297.5,236.5C 282.221,232.988 268.554,236.154 256.5,246C 259.299,245.268 261.966,243.934 264.5,242C 273.781,237.899 283.448,236.565 293.5,238C 275.136,238.342 261.136,246.175 251.5,261.5C 248.302,260.964 245.635,261.631 243.5,263.5C 242.122,268.387 241.289,273.387 241,278.5C 237.247,261.855 242.08,248.355 255.5,238C 259.09,236.47 262.757,235.136 266.5,234C 256.187,233.914 248.354,238.414 243,247.5C 237.027,258.297 235.861,269.63 239.5,281.5C 237.034,276.616 235.034,271.449 233.5,266C 233.785,264.11 234.785,262.777 236.5,262C 235.906,261.536 235.239,261.369 234.5,261.5C 234.797,251.778 238.797,243.944 246.5,238C 258.156,231.834 270.489,229.001 283.5,229.5C 282.975,230.192 282.308,230.692 281.5,231C 286.16,231.943 290.827,232.777 295.5,233.5 Z"/></g>
<g><path style="opacity:0.631" fill="#912ca9" d="M 297.5,236.5 C 298.209,237.404 299.209,237.737 300.5,237.5C 299.072,240.012 298.572,242.678 299,245.5C 300.909,246.332 302.742,245.999 304.5,244.5C 305.496,244.586 306.329,244.252 307,243.5C 307.74,244.749 307.573,245.749 306.5,246.5C 306.19,245.262 305.69,245.262 305,246.5C 303.275,249.674 301.942,253.007 301,256.5C 300.313,254.432 300.48,252.432 301.5,250.5C 301.333,250.167 301.167,249.833 301,249.5C 298.368,253.225 297.868,257.225 299.5,261.5C 298.5,261.5 297.5,261.5 296.5,261.5C 296.508,258.455 296.841,255.455 297.5,252.5C 295.856,252.286 294.356,252.62 293,253.5C 293.07,256.992 292.237,259.992 290.5,262.5C 291.508,255.528 291.675,248.528 291,241.5C 288.951,248.166 287.451,254.832 286.5,261.5C 285.873,257.58 284.207,254.247 281.5,251.5C 280.833,251.5 280.5,251.167 280.5,250.5C 279.498,247.826 277.998,245.492 276,243.5C 275.228,243.645 274.561,243.978 274,244.5C 273.506,246.134 273.34,247.801 273.5,249.5C 268.364,248.663 264.031,249.997 260.5,253.5C 259.504,253.414 258.671,253.748 258,254.5C 257.667,257.5 257.333,260.5 257,263.5C 256.292,262.619 255.458,261.953 254.5,261.5C 253.5,261.5 252.5,261.5 251.5,261.5C 261.136,246.175 275.136,238.342 293.5,238C 283.448,236.565 273.781,237.899 264.5,242C 261.966,243.934 259.299,245.268 256.5,246C 268.554,236.154 282.221,232.988 297.5,236.5 Z"/></g>
<g><path style="opacity:0.631" fill="#f35fc0" d="M 232.5,261.5 C 231.167,261.5 229.833,261.5 228.5,261.5C 228.351,258.393 228.851,255.393 230,252.5C 231.86,248.78 233.693,245.114 235.5,241.5C 239.137,238.675 242.803,235.842 246.5,233C 256.958,225.909 268.291,223.576 280.5,226C 272.364,226.489 264.364,227.822 256.5,230C 242.092,235.661 234.092,246.161 232.5,261.5 Z"/></g>
<g><path style="opacity:0.631" fill="#8e23a0" d="M 243.5,263.5 C 243.833,263.5 244.167,263.5 244.5,263.5C 243.886,267.135 243.552,270.802 243.5,274.5C 242.64,277.911 241.474,281.244 240,284.5C 239.517,283.552 239.351,282.552 239.5,281.5C 235.861,269.63 237.027,258.297 243,247.5C 248.354,238.414 256.187,233.914 266.5,234C 262.757,235.136 259.09,236.47 255.5,238C 242.08,248.355 237.247,261.855 241,278.5C 241.289,273.387 242.122,268.387 243.5,263.5 Z"/></g>
<g><path style="opacity:0.431" fill="#841d9e" d="M 369.5,262.5 C 369.167,262.5 368.833,262.5 368.5,262.5C 367.508,262.672 366.842,262.338 366.5,261.5C 367.066,243.849 360.066,239.682 345.5,249C 341.939,252.63 339.272,256.797 337.5,261.5C 336.833,261.5 336.167,261.5 335.5,261.5C 335.5,261.167 335.5,260.833 335.5,260.5C 339.34,249.993 346.674,243.326 357.5,240.5C 365.621,245.396 369.621,252.73 369.5,262.5 Z"/></g>
<g><path style="opacity:0.631" fill="#c768e2" d="M 281.5,241.5 C 284.438,245.029 285.938,249.029 286,253.5C 281.342,250.542 279.842,246.542 281.5,241.5 Z"/></g>
<g><path style="opacity:0.631" fill="#c667e1" d="M 280.5,250.5 C 278.194,250.007 275.861,249.674 273.5,249.5C 273.34,247.801 273.506,246.134 274,244.5C 274.561,243.978 275.228,243.645 276,243.5C 277.998,245.492 279.498,247.826 280.5,250.5 Z"/></g>
<g><path style="opacity:0.587" fill="#fa63c2" d="M 366.5,261.5 C 365.041,261.567 363.708,261.234 362.5,260.5C 362.5,259.167 362.5,257.833 362.5,256.5C 363.833,256.167 363.833,255.833 362.5,255.5C 362.5,255.167 362.5,254.833 362.5,254.5C 362.672,253.508 362.338,252.842 361.5,252.5C 361.5,251.833 361.167,251.5 360.5,251.5C 360.5,250.833 360.167,250.5 359.5,250.5C 359.5,249.833 359.167,249.5 358.5,249.5C 358.5,248.833 358.167,248.5 357.5,248.5C 355.011,248.298 352.677,248.798 350.5,250C 347.254,254.409 343.587,258.242 339.5,261.5C 338.833,261.5 338.167,261.5 337.5,261.5C 339.272,256.797 341.939,252.63 345.5,249C 360.066,239.682 367.066,243.849 366.5,261.5 Z"/></g>
<g><path style="opacity:0.631" fill="#c566e0" d="M 306.5,246.5 C 305.647,251.47 304.98,256.47 304.5,261.5C 302.833,261.5 301.167,261.5 299.5,261.5C 297.868,257.225 298.368,253.225 301,249.5C 301.167,249.833 301.333,250.167 301.5,250.5C 300.48,252.432 300.313,254.432 301,256.5C 301.942,253.007 303.275,249.674 305,246.5C 305.69,245.262 306.19,245.262 306.5,246.5 Z"/></g>
<g><path style="opacity:0.015" fill="#000000" d="M 371.5,246.5 C 373.19,247.103 374.69,248.103 376,249.5C 376.5,257.827 376.666,266.16 376.5,274.5C 375.833,275.167 375.167,275.833 374.5,276.5C 374.666,269.825 374.5,263.158 374,256.5C 373.871,253.997 372.871,251.997 371,250.5C 370.235,248.934 370.402,247.601 371.5,246.5 Z"/></g>
<g><path style="opacity:0.915" fill="#4d4d4d" d="M 155.5,252.5 C 154.549,253.919 154.216,255.585 154.5,257.5C 152.176,257.338 150.509,256.172 149.5,254C 144.973,251.774 140.807,252.274 137,255.5C 136.333,257.5 136.333,259.5 137,261.5C 137.383,262.056 137.883,262.389 138.5,262.5C 143.43,264.757 148.43,266.924 153.5,269C 154.71,270.039 155.71,271.206 156.5,272.5C 159.256,280.765 156.59,286.265 148.5,289C 142.349,290.079 136.516,289.246 131,286.5C 130.505,284.527 130.338,282.527 130.5,280.5C 131.002,278.915 132.002,278.415 133.5,279C 135.405,280.815 137.072,282.815 138.5,285C 142.475,285.987 146.141,285.487 149.5,283.5C 152.22,281.191 152.72,278.525 151,275.5C 146.145,272.433 140.978,269.933 135.5,268C 131.028,264.417 129.694,259.917 131.5,254.5C 132.626,252.547 134.292,251.047 136.5,250C 141.812,248.208 147.145,248.208 152.5,250C 153.942,250.377 154.942,251.21 155.5,252.5 Z"/></g>
<g><path style="opacity:0.901" fill="#4d4d4d" d="M 221.5,249.5 C 220.086,254.101 217.586,258.101 214,261.5C 208.969,269.033 204.136,276.7 199.5,284.5C 204.318,285.812 208.985,285.812 213.5,284.5C 216.084,284.431 218.084,283.265 219.5,281C 220.749,280.26 221.749,280.427 222.5,281.5C 221.908,284.127 221.575,286.794 221.5,289.5C 211.149,288.574 200.815,288.574 190.5,289.5C 190.5,288.167 190.5,286.833 190.5,285.5C 196.199,277.477 201.866,269.477 207.5,261.5C 209.515,259.324 211.182,256.824 212.5,254C 207.167,253.333 201.833,253.333 196.5,254C 195.027,254.71 194.36,255.876 194.5,257.5C 193.5,257.5 192.5,257.5 191.5,257.5C 191.674,255.139 192.007,252.806 192.5,250.5C 201.986,249.506 211.652,249.173 221.5,249.5 Z"/></g>
<g><path style="opacity:0.018" fill="#010101" d="M 221.5,249.5 C 223.968,251.842 224.134,254.508 222,257.5C 215.054,265.781 208.888,274.614 203.5,284C 206.817,284.498 210.15,284.665 213.5,284.5C 208.985,285.812 204.318,285.812 199.5,284.5C 204.136,276.7 208.969,269.033 214,261.5C 217.586,258.101 220.086,254.101 221.5,249.5 Z"/></g>
<g><path style="opacity:0.997" fill="#5e515c" d="M 312.5,248.5 C 315.91,248.384 317.244,250.05 316.5,253.5C 315.292,254.234 313.959,254.567 312.5,254.5C 312.167,253.5 311.5,252.833 310.5,252.5C 310.733,250.938 311.4,249.605 312.5,248.5 Z"/></g>
<g><path style="opacity:0.023" fill="#000000" d="M 192.5,250.5 C 192.007,252.806 191.674,255.139 191.5,257.5C 192.5,257.5 193.5,257.5 194.5,257.5C 194.36,255.876 195.027,254.71 196.5,254C 201.833,253.333 207.167,253.333 212.5,254C 211.182,256.824 209.515,259.324 207.5,261.5C 207.539,260.417 207.873,259.417 208.5,258.5C 206.833,258.167 205.167,257.833 203.5,257.5C 199.092,257.905 195.092,259.072 191.5,261C 188.887,257.228 189.22,253.728 192.5,250.5 Z"/></g>
<g><path style="opacity:0.999" fill="#5a535c" d="M 273.5,249.5 C 275.861,249.674 278.194,250.007 280.5,250.5C 280.5,251.167 280.833,251.5 281.5,251.5C 281.5,253.5 281.5,255.5 281.5,257.5C 280.5,257.5 279.5,257.5 278.5,257.5C 278.912,255.027 277.912,253.694 275.5,253.5C 274.609,252.89 273.609,252.557 272.5,252.5C 271.5,252.5 270.5,252.5 269.5,252.5C 268.209,252.263 267.209,252.596 266.5,253.5C 265.542,253.953 264.708,254.619 264,255.5C 263.333,257.833 263.333,260.167 264,262.5C 267.168,264.722 270.668,266.056 274.5,266.5C 279.468,268.134 282.801,271.468 284.5,276.5C 284.868,280.044 283.868,283.044 281.5,285.5C 276.711,288.697 271.378,290.031 265.5,289.5C 263.219,288.661 260.885,287.661 258.5,286.5C 257.702,286.043 257.369,285.376 257.5,284.5C 257.5,284.167 257.5,283.833 257.5,283.5C 258.167,282.167 258.833,280.833 259.5,279.5C 260.77,282.155 262.77,284.322 265.5,286C 268.367,286.801 271.034,286.634 273.5,285.5C 274.791,285.737 275.791,285.404 276.5,284.5C 277.5,284.167 278.167,283.5 278.5,282.5C 280.006,279.531 279.673,276.698 277.5,274C 272.833,272 268.167,270 263.5,268C 258.251,263.996 257.251,259.162 260.5,253.5C 264.031,249.997 268.364,248.663 273.5,249.5 Z"/></g>
<g><path style="opacity:0.931" fill="#545153" d="M 333.5,253.5 C 332.527,255.948 332.194,258.615 332.5,261.5C 333.5,261.5 334.5,261.5 335.5,261.5C 336.167,261.5 336.833,261.5 337.5,261.5C 338.167,261.5 338.833,261.5 339.5,261.5C 339.737,262.791 339.404,263.791 338.5,264.5C 337.5,264.5 336.5,264.5 335.5,264.5C 334.503,264.47 333.836,264.97 333.5,266C 331.44,272.227 331.107,278.393 332.5,284.5C 333.862,286.777 335.695,287.11 338,285.5C 339.03,285.836 339.53,286.503 339.5,287.5C 338.833,287.833 338.167,288.167 337.5,288.5C 336.391,288.557 335.391,288.89 334.5,289.5C 331.607,289.969 329.607,288.969 328.5,286.5C 328.167,285.833 327.833,285.167 327.5,284.5C 327.5,283.833 327.5,283.167 327.5,282.5C 327.5,281.5 327.5,280.5 327.5,279.5C 327.5,274.5 327.5,269.5 327.5,264.5C 325.517,264.843 324.183,264.176 323.5,262.5C 324.167,262.167 324.833,261.833 325.5,261.5C 327.369,259.365 328.036,256.698 327.5,253.5C 328.878,252.766 330.378,252.099 332,251.5C 332.717,252.044 333.217,252.711 333.5,253.5 Z"/></g>
<g><path style="opacity:0.022" fill="#000000" d="M 155.5,252.5 C 157.006,255.469 156.673,258.302 154.5,261C 151.404,261.927 149.07,260.927 147.5,258C 144.833,257.333 142.167,257.333 139.5,258C 138.62,259.356 138.286,260.856 138.5,262.5C 137.883,262.389 137.383,262.056 137,261.5C 136.333,259.5 136.333,257.5 137,255.5C 140.807,252.274 144.973,251.774 149.5,254C 150.509,256.172 152.176,257.338 154.5,257.5C 154.216,255.585 154.549,253.919 155.5,252.5 Z"/></g>
<g><path style="opacity:0.54" fill="#851d9e" d="M 235.5,241.5 C 233.693,245.114 231.86,248.78 230,252.5C 228.851,255.393 228.351,258.393 228.5,261.5C 227.833,261.5 227.167,261.5 226.5,261.5C 226.822,253.53 229.822,246.863 235.5,241.5 Z"/></g>
<g><path style="opacity:1" fill="#59535a" d="M 299.5,261.5 C 301.167,261.5 302.833,261.5 304.5,261.5C 304.715,263.179 304.048,264.179 302.5,264.5C 301.167,264.5 299.833,264.5 298.5,264.5C 297.18,267.428 296.514,270.761 296.5,274.5C 296.667,277.833 296.833,281.167 297,284.5C 297.417,285.756 298.25,286.423 299.5,286.5C 301.239,285.566 302.905,285.566 304.5,286.5C 302.513,288.327 300.179,289.327 297.5,289.5C 296.391,289.443 295.391,289.11 294.5,288.5C 294.5,287.833 294.167,287.5 293.5,287.5C 292.781,285.236 292.448,282.903 292.5,280.5C 292.5,276.167 292.5,271.833 292.5,267.5C 292.5,266.5 292.5,265.5 292.5,264.5C 291.5,264.5 290.5,264.5 289.5,264.5C 288.243,263.377 288.576,262.711 290.5,262.5C 292.237,259.992 293.07,256.992 293,253.5C 294.356,252.62 295.856,252.286 297.5,252.5C 296.841,255.455 296.508,258.455 296.5,261.5C 297.5,261.5 298.5,261.5 299.5,261.5 Z"/></g>
<g><path style="opacity:0.009" fill="#000000" d="M 327.5,253.5 C 328.036,256.698 327.369,259.365 325.5,261.5C 325.337,259.143 325.503,256.81 326,254.5C 326.383,253.944 326.883,253.611 327.5,253.5 Z"/></g>
<g><path style="opacity:0.012" fill="#000000" d="M 333.5,253.5 C 334.167,255.833 334.833,258.167 335.5,260.5C 335.5,260.833 335.5,261.167 335.5,261.5C 334.5,261.5 333.5,261.5 332.5,261.5C 332.194,258.615 332.527,255.948 333.5,253.5 Z"/></g>
<g><path style="opacity:0.021" fill="#000000" d="M 131.5,254.5 C 129.694,259.917 131.028,264.417 135.5,268C 140.978,269.933 146.145,272.433 151,275.5C 152.72,278.525 152.22,281.191 149.5,283.5C 149.739,281.533 149.406,279.699 148.5,278C 143.833,276 139.167,274 134.5,272C 128.011,266.9 127.011,261.067 131.5,254.5 Z"/></g>
<g><path style="opacity:0.632" fill="#c366dd" d="M 281.5,251.5 C 284.207,254.247 285.873,257.58 286.5,261.5C 285.399,262.8 284.066,263.3 282.5,263C 279.152,260.499 276.818,257.332 275.5,253.5C 277.912,253.694 278.912,255.027 278.5,257.5C 279.5,257.5 280.5,257.5 281.5,257.5C 281.5,255.5 281.5,253.5 281.5,251.5 Z"/></g>
<g><path style="opacity:0.632" fill="#b75bd1" d="M 266.5,253.5 C 268.387,258.266 271.054,262.599 274.5,266.5C 270.668,266.056 267.168,264.722 264,262.5C 263.333,260.167 263.333,257.833 264,255.5C 264.708,254.619 265.542,253.953 266.5,253.5 Z"/></g>
<g><path style="opacity:0.633" fill="#8b229d" d="M 310.5,252.5 C 311.5,252.833 312.167,253.5 312.5,254.5C 311.781,256.764 311.448,259.097 311.5,261.5C 310.833,261.5 310.167,261.5 309.5,261.5C 309.704,258.482 310.037,255.482 310.5,252.5 Z"/></g>
<g><path style="opacity:0.632" fill="#f561be" d="M 316.5,253.5 C 316.416,256.327 315.75,258.994 314.5,261.5C 313.5,261.5 312.5,261.5 311.5,261.5C 311.448,259.097 311.781,256.764 312.5,254.5C 313.959,254.567 315.292,254.234 316.5,253.5 Z"/></g>
<g><path style="opacity:0.679" fill="#802b8f" d="M 380.5,245.5 C 381.81,251.288 382.477,257.288 382.5,263.5C 382.013,264.473 381.513,265.473 381,266.5C 380.5,259.508 380.334,252.508 380.5,245.5 Z"/></g>
<g><path style="opacity:0.904" fill="#4f4f4f" d="M 183.5,264.5 C 184.804,270.323 184.804,276.157 183.5,282C 183.414,284.352 184.414,285.852 186.5,286.5C 187.167,286.833 187.833,287.167 188.5,287.5C 188.38,288.586 187.713,289.253 186.5,289.5C 184.137,288.319 181.803,288.319 179.5,289.5C 178.719,288.271 178.219,286.938 178,285.5C 172.153,291.161 166.82,290.828 162,284.5C 161.398,281.779 161.565,279.113 162.5,276.5C 166.502,273.321 171.169,271.655 176.5,271.5C 177.675,271.719 178.675,271.386 179.5,270.5C 178.958,265.03 175.958,262.863 170.5,264C 168.36,264.973 166.693,266.473 165.5,268.5C 164.438,266.978 163.771,265.312 163.5,263.5C 164.347,262.034 165.68,261.2 167.5,261C 171.5,260.333 175.5,260.333 179.5,261C 181.324,261.66 182.657,262.827 183.5,264.5 Z M 176.5,282.5 C 174.711,283.877 172.711,284.877 170.5,285.5C 169.004,280.522 171.004,278.522 176.5,279.5C 176.5,280.5 176.5,281.5 176.5,282.5 Z"/></g>
<g><path style="opacity:0.909" fill="#514e51" d="M 361.5,260.5 C 361.833,260.5 362.167,260.5 362.5,260.5C 363.708,261.234 365.041,261.567 366.5,261.5C 366.842,262.338 367.508,262.672 368.5,262.5C 368.946,265.01 368.28,267.01 366.5,268.5C 366.573,266.973 365.906,265.973 364.5,265.5C 363.71,264.599 362.71,263.932 361.5,263.5C 360.833,263.5 360.167,263.5 359.5,263.5C 352.871,264.129 349.205,267.795 348.5,274.5C 348.263,275.791 348.596,276.791 349.5,277.5C 349.5,278.167 349.5,278.833 349.5,279.5C 349.842,280.338 350.508,280.672 351.5,280.5C 352.673,282.504 354.34,284.004 356.5,285C 360.612,285.473 364.612,284.973 368.5,283.5C 368.5,284.167 368.5,284.833 368.5,285.5C 365.63,287.794 362.297,289.128 358.5,289.5C 356.833,289.5 355.167,289.5 353.5,289.5C 350.574,287.916 347.908,285.916 345.5,283.5C 345.5,282.833 345.5,282.167 345.5,281.5C 345.167,280.833 344.833,280.167 344.5,279.5C 344.5,278.833 344.167,278.5 343.5,278.5C 343.19,274.3 343.857,270.3 345.5,266.5C 349.474,261.19 354.808,259.19 361.5,260.5 Z"/></g>
<g><path style="opacity:0.941" fill="#525152" d="M 375.5,245.5 C 376.833,245.5 378.167,245.5 379.5,245.5C 379.833,245.5 380.167,245.5 380.5,245.5C 380.334,252.508 380.5,259.508 381,266.5C 381.513,265.473 382.013,264.473 382.5,263.5C 383.167,263.167 383.833,262.833 384.5,262.5C 385.71,262.068 386.71,261.401 387.5,260.5C 393.121,259.371 397.454,261.037 400.5,265.5C 400.628,272.901 401.628,279.901 403.5,286.5C 404.492,286.328 405.158,286.662 405.5,287.5C 405.38,288.586 404.713,289.253 403.5,289.5C 400.845,288.382 398.178,288.382 395.5,289.5C 396.741,282.113 396.575,274.78 395,267.5C 393.152,264.959 390.652,263.959 387.5,264.5C 385.973,264.427 384.973,265.094 384.5,266.5C 383.206,267.29 382.039,268.29 381,269.5C 380.502,272.817 380.335,276.15 380.5,279.5C 380.263,280.791 380.596,281.791 381.5,282.5C 381.157,284.483 381.824,285.817 383.5,286.5C 384.492,286.328 385.158,286.662 385.5,287.5C 385.209,288.649 384.376,289.316 383,289.5C 380.431,288.384 377.931,288.384 375.5,289.5C 375.158,288.662 374.492,288.328 373.5,288.5C 373.062,288.565 372.728,288.399 372.5,288C 373.766,287.691 374.933,287.191 376,286.5C 376.497,283.854 376.664,281.187 376.5,278.5C 376.5,277.167 376.5,275.833 376.5,274.5C 376.666,266.16 376.5,257.827 376,249.5C 374.69,248.103 373.19,247.103 371.5,246.5C 372.568,245.566 373.901,245.232 375.5,245.5 Z"/></g>
<g><path style="opacity:0.891" fill="#4f4f4f" d="M 433.5,265.5 C 434.265,268.096 434.599,270.763 434.5,273.5C 427.5,273.5 420.5,273.5 413.5,273.5C 413.345,276.716 414.345,279.383 416.5,281.5C 421.266,286.017 426.599,286.683 432.5,283.5C 433.107,283.624 433.44,283.957 433.5,284.5C 432.543,287.168 430.543,288.668 427.5,289C 411.622,290.281 405.622,283.114 409.5,267.5C 412.031,262.509 416.198,260.176 422,260.5C 426.795,260.152 430.629,261.818 433.5,265.5 Z M 424.5,270.5 C 422.833,270.5 421.167,270.5 419.5,270.5C 419.97,269.307 420.97,268.64 422.5,268.5C 424.976,268.233 425.643,268.899 424.5,270.5 Z"/></g>
<g><path style="opacity:0.878" fill="#4d4d4d" d="M 458.5,262.5 C 458.5,264.5 458.5,266.5 458.5,268.5C 457.5,268.5 456.5,268.5 455.5,268.5C 455.67,267.178 455.337,266.011 454.5,265C 451.97,263.578 449.303,263.245 446.5,264C 443.598,266.864 443.932,269.031 447.5,270.5C 450.809,271.663 454.143,272.83 457.5,274C 459.063,274.759 460.063,275.926 460.5,277.5C 461.332,283.345 458.999,287.179 453.5,289C 449.095,289.696 444.761,289.363 440.5,288C 439.577,285.959 439.244,283.792 439.5,281.5C 439.973,280.094 440.973,279.427 442.5,279.5C 443.74,280.973 444.74,282.64 445.5,284.5C 447.743,285.474 450.076,285.808 452.5,285.5C 455.139,284.294 455.972,282.294 455,279.5C 450.435,277.353 445.769,275.353 441,273.5C 439.18,270.247 439.013,266.913 440.5,263.5C 443.12,261.105 446.287,260.105 450,260.5C 453.15,260.36 455.983,261.027 458.5,262.5 Z M 442.5,279.5 C 445.833,280.167 449.167,280.833 452.5,281.5C 452.5,282.833 452.5,284.167 452.5,285.5C 450.076,285.808 447.743,285.474 445.5,284.5C 444.74,282.64 443.74,280.973 442.5,279.5 Z"/></g>
<g><path style="opacity:0.007" fill="#000000" d="M 224.5,261.5 C 224.328,262.492 224.662,263.158 225.5,263.5C 225.5,264.833 225.5,266.167 225.5,267.5C 222.073,265.987 221.739,263.987 224.5,261.5 Z"/></g>
<g><path style="opacity:0.986" fill="#555155" d="M 309.5,261.5 C 310.167,261.5 310.833,261.5 311.5,261.5C 312.5,261.5 313.5,261.5 314.5,261.5C 315.167,261.5 315.833,261.5 316.5,261.5C 316.5,264.833 316.5,268.167 316.5,271.5C 316.173,276.544 316.506,281.544 317.5,286.5C 318.183,286.137 318.85,285.804 319.5,285.5C 320.167,286.5 320.833,287.5 321.5,288.5C 319.735,289.461 317.735,289.795 315.5,289.5C 312.833,288.833 310.167,288.167 307.5,287.5C 309.39,287.703 310.89,287.037 312,285.5C 312.499,280.177 312.666,274.844 312.5,269.5C 313.32,265.842 311.987,263.509 308.5,262.5C 308.624,261.893 308.957,261.56 309.5,261.5 Z"/></g>
<g><path style="opacity:0.973" fill="#5a5258" d="M 224.5,261.5 C 225.167,261.5 225.833,261.5 226.5,261.5C 227.167,261.5 227.833,261.5 228.5,261.5C 229.833,261.5 231.167,261.5 232.5,261.5C 233.167,261.5 233.833,261.5 234.5,261.5C 235.239,261.369 235.906,261.536 236.5,262C 234.785,262.777 233.785,264.11 233.5,266C 235.034,271.449 237.034,276.616 239.5,281.5C 239.351,282.552 239.517,283.552 240,284.5C 241.474,281.244 242.64,277.911 243.5,274.5C 245.263,272.221 246.263,269.555 246.5,266.5C 246.36,264.97 245.693,263.97 244.5,263.5C 244.167,263.5 243.833,263.5 243.5,263.5C 245.635,261.631 248.302,260.964 251.5,261.5C 252.5,261.5 253.5,261.5 254.5,261.5C 254.672,262.492 254.338,263.158 253.5,263.5C 250.18,267.144 248.18,271.478 247.5,276.5C 245.935,278.509 244.935,280.843 244.5,283.5C 243.463,284.93 242.796,286.597 242.5,288.5C 241.463,289.93 240.796,291.597 240.5,293.5C 239.662,293.842 239.328,294.508 239.5,295.5C 237.35,300.466 233.517,303.466 228,304.5C 226.97,304.164 226.47,303.497 226.5,302.5C 228.463,301.18 230.463,299.846 232.5,298.5C 234.316,296.882 235.649,294.882 236.5,292.5C 237.338,292.158 237.672,291.492 237.5,290.5C 235.586,282.02 232.586,274.02 228.5,266.5C 228.5,264.5 227.5,263.5 225.5,263.5C 224.662,263.158 224.328,262.492 224.5,261.5 Z"/></g>
<g><path style="opacity:0.631" fill="#8621a1" d="M 266.5,253.5 C 267.209,252.596 268.209,252.263 269.5,252.5C 270.995,260.164 275.328,265.497 282.5,268.5C 283.167,268.333 283.833,268.167 284.5,268C 279.113,263.795 275.113,258.628 272.5,252.5C 273.609,252.557 274.609,252.89 275.5,253.5C 276.818,257.332 279.152,260.499 282.5,263C 284.066,263.3 285.399,262.8 286.5,261.5C 286.556,266.731 285.889,271.731 284.5,276.5C 282.801,271.468 279.468,268.134 274.5,266.5C 271.054,262.599 268.387,258.266 266.5,253.5 Z"/></g>
<g><path style="opacity:0.631" fill="#c466df" d="M 269.5,252.5 C 270.5,252.5 271.5,252.5 272.5,252.5C 275.113,258.628 279.113,263.795 284.5,268C 283.833,268.167 283.167,268.333 282.5,268.5C 275.328,265.497 270.995,260.164 269.5,252.5 Z"/></g>
<g><path style="opacity:0.633" fill="#e156b7" d="M 316.5,271.5 C 316.5,268.167 316.5,264.833 316.5,261.5C 317.117,261.389 317.617,261.056 318,260.5C 318.567,264.417 318.067,268.083 316.5,271.5 Z"/></g>
<g><path style="opacity:0.014" fill="#000000" d="M 323.5,262.5 C 324.183,264.176 325.517,264.843 327.5,264.5C 327.5,269.5 327.5,274.5 327.5,279.5C 326.508,279.672 325.842,279.338 325.5,278.5C 325.665,275.482 325.498,272.482 325,269.5C 323.887,268.695 322.721,268.028 321.5,267.5C 321.5,266.5 321.5,265.5 321.5,264.5C 321.833,263.5 322.5,262.833 323.5,262.5 Z"/></g>
<g><path style="opacity:0.01" fill="#000000" d="M 368.5,262.5 C 368.833,262.5 369.167,262.5 369.5,262.5C 371.329,266.541 370.496,269.875 367,272.5C 366.329,271.748 365.496,271.414 364.5,271.5C 364.932,270.29 365.599,269.29 366.5,268.5C 368.28,267.01 368.946,265.01 368.5,262.5 Z"/></g>
<g><path style="opacity:0.02" fill="#000000" d="M 458.5,262.5 C 460.026,263.492 460.693,264.992 460.5,267C 460.951,269.879 459.785,271.712 457,272.5C 454.863,270.558 452.529,268.891 450,267.5C 448.251,267.748 447.418,268.748 447.5,270.5C 443.932,269.031 443.598,266.864 446.5,264C 449.303,263.245 451.97,263.578 454.5,265C 455.337,266.011 455.67,267.178 455.5,268.5C 456.5,268.5 457.5,268.5 458.5,268.5C 458.5,266.5 458.5,264.5 458.5,262.5 Z"/></g>
<g><path style="opacity:0.02" fill="#020202" d="M 163.5,263.5 C 163.771,265.312 164.438,266.978 165.5,268.5C 166.693,266.473 168.36,264.973 170.5,264C 175.958,262.863 178.958,265.03 179.5,270.5C 178.675,271.386 177.675,271.719 176.5,271.5C 176.315,269.11 174.982,268.11 172.5,268.5C 169.901,269.925 167.234,271.091 164.5,272C 161.189,269.319 160.855,266.485 163.5,263.5 Z"/></g>
<g><path style="opacity:0.026" fill="#000000" d="M 359.5,263.5 C 358.396,265.389 357.063,267.055 355.5,268.5C 354.833,268.5 354.5,268.833 354.5,269.5C 353.833,269.5 353.5,269.833 353.5,270.5C 352.833,270.5 352.5,270.833 352.5,271.5C 351.738,273.262 350.404,274.262 348.5,274.5C 349.205,267.795 352.871,264.129 359.5,263.5 Z"/></g>
<g><path style="opacity:0.025" fill="#000000" d="M 424.5,270.5 C 425.643,268.899 424.976,268.233 422.5,268.5C 420.97,268.64 419.97,269.307 419.5,270.5C 414.594,271.046 413.594,269.546 416.5,266C 422.934,261.759 426.934,263.259 428.5,270.5C 427.167,270.5 425.833,270.5 424.5,270.5 Z M 424.5,270.5 C 422.833,270.5 421.167,270.5 419.5,270.5C 419.97,269.307 420.97,268.64 422.5,268.5C 424.976,268.233 425.643,268.899 424.5,270.5 Z"/></g>
<g><path style="opacity:0.01" fill="#000000" d="M 183.5,264.5 C 184.558,265.6 185.392,266.934 186,268.5C 186.499,274.491 186.666,280.491 186.5,286.5C 184.414,285.852 183.414,284.352 183.5,282C 184.804,276.157 184.804,270.323 183.5,264.5 Z"/></g>
<g><path style="opacity:0.017" fill="#000000" d="M 387.5,264.5 C 390.652,263.959 393.152,264.959 395,267.5C 396.575,274.78 396.741,282.113 395.5,289.5C 398.178,288.382 400.845,288.382 403.5,289.5C 404.713,289.253 405.38,288.586 405.5,287.5C 408.049,289.562 407.716,291.395 404.5,293C 401.036,293.817 397.702,293.483 394.5,292C 393.685,284.913 393.185,277.747 393,270.5C 391.039,268.42 388.872,268.086 386.5,269.5C 386.629,267.784 386.962,266.117 387.5,264.5 Z"/></g>
<g><path style="opacity:0.022" fill="#000000" d="M 440.5,263.5 C 439.013,266.913 439.18,270.247 441,273.5C 445.769,275.353 450.435,277.353 455,279.5C 455.972,282.294 455.139,284.294 452.5,285.5C 452.5,284.167 452.5,282.833 452.5,281.5C 449.167,280.833 445.833,280.167 442.5,279.5C 437.879,276.411 436.379,272.077 438,266.5C 438.377,265.058 439.21,264.058 440.5,263.5 Z"/></g>
<g><path style="opacity:0.008" fill="#000000" d="M 400.5,265.5 C 402.067,266.681 402.901,268.347 403,270.5C 403.499,275.823 403.666,281.156 403.5,286.5C 401.628,279.901 400.628,272.901 400.5,265.5 Z"/></g>
<g><path style="opacity:0.025" fill="#000000" d="M 433.5,265.5 C 435.68,267.031 436.68,269.198 436.5,272C 436.646,274.034 435.98,275.701 434.5,277C 428.509,277.499 422.509,277.666 416.5,277.5C 416.5,278.833 416.5,280.167 416.5,281.5C 414.345,279.383 413.345,276.716 413.5,273.5C 420.5,273.5 427.5,273.5 434.5,273.5C 434.599,270.763 434.265,268.096 433.5,265.5 Z"/></g>
<g><path style="opacity:0.635" fill="#ef5fbb" d="M 244.5,263.5 C 245.693,263.97 246.36,264.97 246.5,266.5C 246.263,269.555 245.263,272.221 243.5,274.5C 243.552,270.802 243.886,267.135 244.5,263.5 Z"/></g>
<g><path style="opacity:0.632" fill="#f761c0" d="M 290.5,262.5 C 288.576,262.711 288.243,263.377 289.5,264.5C 289.151,271.928 288.151,279.262 286.5,286.5C 283.773,292.286 280.773,297.952 277.5,303.5C 275.833,304.833 274.167,306.167 272.5,307.5C 271.5,307.5 270.5,307.5 269.5,307.5C 269.491,305.692 269.991,304.025 271,302.5C 275.525,297.447 279.025,291.781 281.5,285.5C 283.868,283.044 284.868,280.044 284.5,276.5C 285.889,271.731 286.556,266.731 286.5,261.5C 287.451,254.832 288.951,248.166 291,241.5C 291.675,248.528 291.508,255.528 290.5,262.5 Z"/></g>
<g><path style="opacity:0.009" fill="#000000" d="M 345.5,266.5 C 343.857,270.3 343.19,274.3 343.5,278.5C 342.833,278.5 342.167,278.5 341.5,278.5C 340.741,273.687 342.075,269.687 345.5,266.5 Z"/></g>
<g><path style="opacity:0.632" fill="#c366de" d="M 298.5,264.5 C 299.833,264.5 301.167,264.5 302.5,264.5C 297.959,289.51 296.626,289.51 298.5,264.5 Z"/></g>
<g><path style="opacity:0.632" fill="#f561c0" d="M 312.5,248.5 C 311.4,249.605 310.733,250.938 310.5,252.5C 310.037,255.482 309.704,258.482 309.5,261.5C 308.957,261.56 308.624,261.893 308.5,262.5C 311.987,263.509 313.32,265.842 312.5,269.5C 310.544,275.312 308.877,281.312 307.5,287.5C 305.705,290.404 303.872,293.404 302,296.5C 302.195,294.874 302.195,293.207 302,291.5C 294.074,307.849 292.574,307.183 297.5,289.5C 300.179,289.327 302.513,288.327 304.5,286.5C 302.905,285.566 301.239,285.566 299.5,286.5C 300.694,281.418 302.194,276.418 304,271.5C 304.97,263.761 306.304,256.095 308,248.5C 309.744,243.222 311.244,243.222 312.5,248.5 Z"/></g>
<g><path style="opacity:0.6" fill="#f862c0" d="M 361.5,263.5 C 362.71,263.932 363.71,264.599 364.5,265.5C 360.783,271.55 355.783,276.217 349.5,279.5C 349.5,278.833 349.5,278.167 349.5,277.5C 354.564,273.767 358.564,269.101 361.5,263.5 Z"/></g>
<g><path style="opacity:0.647" fill="#e85eb5" d="M 384.5,266.5 C 384.231,271.264 382.898,275.597 380.5,279.5C 380.335,276.15 380.502,272.817 381,269.5C 382.039,268.29 383.206,267.29 384.5,266.5 Z"/></g>
<g><path style="opacity:0.019" fill="#000000" d="M 409.5,267.5 C 405.622,283.114 411.622,290.281 427.5,289C 430.543,288.668 432.543,287.168 433.5,284.5C 435.351,285.866 435.684,287.533 434.5,289.5C 426.99,294.65 419.323,294.816 411.5,290C 406.755,284.731 405.255,278.564 407,271.5C 407.2,269.68 408.034,268.347 409.5,267.5 Z"/></g>
<g><path style="opacity:0.509" fill="#7d1f96" d="M 357.5,248.5 C 358.167,248.5 358.5,248.833 358.5,249.5C 359.167,249.5 359.5,249.833 359.5,250.5C 360.167,250.5 360.5,250.833 360.5,251.5C 361.167,251.5 361.5,251.833 361.5,252.5C 361.328,253.492 361.662,254.158 362.5,254.5C 362.5,254.833 362.5,255.167 362.5,255.5C 362.5,255.833 362.5,256.167 362.5,256.5C 362.5,257.833 362.5,259.167 362.5,260.5C 362.167,260.5 361.833,260.5 361.5,260.5C 361.79,252.936 358.457,250.103 351.5,252C 343.98,259.758 339.647,268.925 338.5,279.5C 339.791,279.737 340.791,279.404 341.5,278.5C 342.167,278.5 342.833,278.5 343.5,278.5C 344.167,278.5 344.5,278.833 344.5,279.5C 340.286,281.158 336.286,282.824 332.5,284.5C 331.107,278.393 331.44,272.227 333.5,266C 333.836,264.97 334.503,264.47 335.5,264.5C 334.185,269.744 333.518,275.077 333.5,280.5C 334.675,280.719 335.675,280.386 336.5,279.5C 335.626,277.253 335.292,274.92 335.5,272.5C 336.167,272.5 336.5,272.167 336.5,271.5C 336.878,269.079 337.545,266.746 338.5,264.5C 339.404,263.791 339.737,262.791 339.5,261.5C 343.587,258.242 347.254,254.409 350.5,250C 352.677,248.798 355.011,248.298 357.5,248.5 Z"/></g>
<g><path style="opacity:0.473" fill="#f461be" d="M 335.5,264.5 C 336.5,264.5 337.5,264.5 338.5,264.5C 337.545,266.746 336.878,269.079 336.5,271.5C 335.833,271.5 335.5,271.833 335.5,272.5C 335.292,274.92 335.626,277.253 336.5,279.5C 335.675,280.386 334.675,280.719 333.5,280.5C 333.518,275.077 334.185,269.744 335.5,264.5 Z"/></g>
<g><path style="opacity:0.431" fill="#811c9b" d="M 359.5,263.5 C 360.167,263.5 360.833,263.5 361.5,263.5C 358.564,269.101 354.564,273.767 349.5,277.5C 348.596,276.791 348.263,275.791 348.5,274.5C 350.404,274.262 351.738,273.262 352.5,271.5C 353.167,271.5 353.5,271.167 353.5,270.5C 354.167,270.5 354.5,270.167 354.5,269.5C 355.167,269.5 355.5,269.167 355.5,268.5C 357.063,267.055 358.396,265.389 359.5,263.5 Z"/></g>
<g><path style="opacity:0.477" fill="#87209d" d="M 364.5,265.5 C 365.906,265.973 366.573,266.973 366.5,268.5C 365.599,269.29 364.932,270.29 364.5,271.5C 360.442,274.89 356.109,277.89 351.5,280.5C 350.508,280.672 349.842,280.338 349.5,279.5C 355.783,276.217 360.783,271.55 364.5,265.5 Z"/></g>
<g><path style="opacity:0.497" fill="#821c9c" d="M 225.5,263.5 C 227.5,263.5 228.5,264.5 228.5,266.5C 229.545,275.311 232.545,283.311 237.5,290.5C 237.672,291.492 237.338,292.158 236.5,292.5C 235.833,292.167 235.167,291.833 234.5,291.5C 229.533,284.269 226.533,276.269 225.5,267.5C 225.5,266.167 225.5,264.833 225.5,263.5 Z"/></g>
<g><path style="opacity:0.451" fill="#821e9a" d="M 387.5,264.5 C 386.962,266.117 386.629,267.784 386.5,269.5C 385.703,273.223 384.703,276.89 383.5,280.5C 382.833,281.167 382.167,281.833 381.5,282.5C 380.596,281.791 380.263,280.791 380.5,279.5C 382.898,275.597 384.231,271.264 384.5,266.5C 384.973,265.094 385.973,264.427 387.5,264.5 Z"/></g>
<g><path style="opacity:0.631" fill="#992ea8" d="M 289.5,264.5 C 290.5,264.5 291.5,264.5 292.5,264.5C 292.5,265.5 292.5,266.5 292.5,267.5C 291.239,274.058 289.239,280.391 286.5,286.5C 288.151,279.262 289.151,271.928 289.5,264.5 Z"/></g>
<g><path style="opacity:0.02" fill="#000000" d="M 156.5,272.5 C 158.694,274.221 159.861,276.555 160,279.5C 160.377,278.058 161.21,277.058 162.5,276.5C 161.565,279.113 161.398,281.779 162,284.5C 166.82,290.828 172.153,291.161 178,285.5C 178.219,286.938 178.719,288.271 179.5,289.5C 181.803,288.319 184.137,288.319 186.5,289.5C 187.713,289.253 188.38,288.586 188.5,287.5C 189.167,286.833 189.833,286.167 190.5,285.5C 190.5,286.833 190.5,288.167 190.5,289.5C 200.815,288.574 211.149,288.574 221.5,289.5C 221.575,286.794 221.908,284.127 222.5,281.5C 225.118,285.378 224.785,289.212 221.5,293C 208.771,293.345 196.105,293.511 183.5,293.5C 180.953,293.558 178.62,292.891 176.5,291.5C 167.882,295.875 162.049,293.541 159,284.5C 155.876,291.266 150.543,294.266 143,293.5C 137.786,293.865 133.119,292.532 129,289.5C 128.333,286.833 128.333,284.167 129,281.5C 129.383,280.944 129.883,280.611 130.5,280.5C 130.338,282.527 130.505,284.527 131,286.5C 136.516,289.246 142.349,290.079 148.5,289C 156.59,286.265 159.256,280.765 156.5,272.5 Z"/></g>
<g><path style="opacity:0.635" fill="#bf64d9" d="M 260.5,253.5 C 257.251,259.162 258.251,263.996 263.5,268C 268.167,270 272.833,272 277.5,274C 279.673,276.698 280.006,279.531 278.5,282.5C 270.71,279.548 264.543,274.548 260,267.5C 259.333,268.167 259.333,268.833 260,269.5C 263.948,276.221 269.448,281.221 276.5,284.5C 275.791,285.404 274.791,285.737 273.5,285.5C 262.225,282.23 255.558,274.897 253.5,263.5C 254.338,263.158 254.672,262.492 254.5,261.5C 255.458,261.953 256.292,262.619 257,263.5C 257.333,260.5 257.667,257.5 258,254.5C 258.671,253.748 259.504,253.414 260.5,253.5 Z"/></g>
<g><path style="opacity:0.023" fill="#010101" d="M 176.5,282.5 C 176.5,281.5 176.5,280.5 176.5,279.5C 171.004,278.522 169.004,280.522 170.5,285.5C 166.854,284.538 165.687,282.205 167,278.5C 170.654,275.709 174.82,274.375 179.5,274.5C 179.397,277.636 178.397,280.302 176.5,282.5 Z"/></g>
<g><path style="opacity:0.632" fill="#c161db" d="M 292.5,267.5 C 292.5,271.833 292.5,276.167 292.5,280.5C 290.393,288.386 286.893,295.719 282,302.5C 281.333,303.833 281.333,305.167 282,306.5C 284.043,304.792 285.71,302.792 287,300.5C 285.988,307.087 282.155,309.254 275.5,307C 276.823,306.184 277.489,305.017 277.5,303.5C 280.773,297.952 283.773,292.286 286.5,286.5C 289.239,280.391 291.239,274.058 292.5,267.5 Z"/></g>
<g><path style="opacity:0.634" fill="#8d269c" d="M 312.5,269.5 C 312.666,274.844 312.499,280.177 312,285.5C 310.89,287.037 309.39,287.703 307.5,287.5C 308.877,281.312 310.544,275.312 312.5,269.5 Z"/></g>
<g><path style="opacity:0.019" fill="#000000" d="M 460.5,277.5 C 464.362,284.648 462.362,289.814 454.5,293C 448.903,294.091 443.57,293.424 438.5,291C 437.39,288.263 437.223,285.429 438,282.5C 438.383,281.944 438.883,281.611 439.5,281.5C 439.244,283.792 439.577,285.959 440.5,288C 444.761,289.363 449.095,289.696 453.5,289C 458.999,287.179 461.332,283.345 460.5,277.5 Z"/></g>
<g><path style="opacity:0.615" fill="#f560c0" d="M 327.5,282.5 C 327.5,283.167 327.5,283.833 327.5,284.5C 325.407,283.955 323.407,283.122 321.5,282C 320.483,280.951 320.316,279.784 321,278.5C 322.638,280.734 324.805,282.067 327.5,282.5 Z"/></g>
<g><path style="opacity:0.639" fill="#d856af" d="M 228.5,266.5 C 232.586,274.02 235.586,282.02 237.5,290.5C 232.545,283.311 229.545,275.311 228.5,266.5 Z"/></g>
<g><path style="opacity:0.631" fill="#8824a5" d="M 278.5,282.5 C 278.167,283.5 277.5,284.167 276.5,284.5C 269.448,281.221 263.948,276.221 260,269.5C 259.333,268.833 259.333,268.167 260,267.5C 264.543,274.548 270.71,279.548 278.5,282.5 Z"/></g>
<g><path style="opacity:0.498" fill="#88209d" d="M 376.5,274.5 C 376.5,275.833 376.5,277.167 376.5,278.5C 374.477,281.52 371.81,283.854 368.5,285.5C 368.5,284.833 368.5,284.167 368.5,283.5C 371.19,281.807 373.19,279.473 374.5,276.5C 375.167,275.833 375.833,275.167 376.5,274.5 Z"/></g>
<g><path style="opacity:0.008" fill="#000000" d="M 383.5,280.5 C 383.5,282.5 383.5,284.5 383.5,286.5C 381.824,285.817 381.157,284.483 381.5,282.5C 382.167,281.833 382.833,281.167 383.5,280.5 Z"/></g>
<g><path style="opacity:0.609" fill="#e95bbb" d="M 344.5,279.5 C 344.833,280.167 345.167,280.833 345.5,281.5C 341.298,282.967 336.965,283.967 332.5,284.5C 336.286,282.824 340.286,281.158 344.5,279.5 Z"/></g>
<g><path style="opacity:0.601" fill="#851f9c" d="M 345.5,281.5 C 345.5,282.167 345.5,282.833 345.5,283.5C 344.833,283.833 344.167,284.167 343.5,284.5C 342.167,284.833 342.167,285.167 343.5,285.5C 344.167,286.5 344.833,287.5 345.5,288.5C 343.5,288.167 341.5,287.833 339.5,287.5C 339.53,286.503 339.03,285.836 338,285.5C 335.695,287.11 333.862,286.777 332.5,284.5C 336.965,283.967 341.298,282.967 345.5,281.5 Z"/></g>
<g><path style="opacity:0.029" fill="#000000" d="M 345.5,283.5 C 347.908,285.916 350.574,287.916 353.5,289.5C 350.833,289.167 348.167,288.833 345.5,288.5C 344.833,287.5 344.167,286.5 343.5,285.5C 343.5,285.167 343.5,284.833 343.5,284.5C 344.167,284.167 344.833,283.833 345.5,283.5 Z"/></g>
<g><path style="opacity:0.635" fill="#f160bb" d="M 247.5,276.5 C 248.149,282.194 248.649,287.861 249,293.5C 246.682,290.531 245.182,287.198 244.5,283.5C 244.935,280.843 245.935,278.509 247.5,276.5 Z"/></g>
<g><path style="opacity:0.019" fill="#000000" d="M 325.5,286.5 C 326.5,286.5 327.5,286.5 328.5,286.5C 329.607,288.969 331.607,289.969 334.5,289.5C 335.833,290.5 337.167,291.5 338.5,292.5C 331.75,295.315 327.417,293.315 325.5,286.5 Z"/></g>
<g><path style="opacity:0.017" fill="#010101" d="M 385.5,287.5 C 388.07,289.177 388.07,291.01 385.5,293C 380.748,293.773 376.081,293.607 371.5,292.5C 372.795,291.512 374.128,290.512 375.5,289.5C 377.931,288.384 380.431,288.384 383,289.5C 384.376,289.316 385.209,288.649 385.5,287.5 Z"/></g>
<g><path style="opacity:0.013" fill="#000000" d="M 321.5,288.5 C 322.782,289.708 322.782,291.042 321.5,292.5C 318.579,293.407 315.579,293.74 312.5,293.5C 313.5,292.167 314.5,290.833 315.5,289.5C 317.735,289.795 319.735,289.461 321.5,288.5 Z"/></g>
<g><path style="opacity:0.635" fill="#f461bd" d="M 376.5,278.5 C 376.664,281.187 376.497,283.854 376,286.5C 374.933,287.191 373.766,287.691 372.5,288C 372.728,288.399 373.062,288.565 373.5,288.5C 368.152,292.664 361.985,294.331 355,293.5C 348.259,294.526 342.426,292.859 337.5,288.5C 338.167,288.167 338.833,287.833 339.5,287.5C 341.5,287.833 343.5,288.167 345.5,288.5C 347.848,289.952 350.514,290.618 353.5,290.5C 355.369,290.493 357.036,290.16 358.5,289.5C 362.297,289.128 365.63,287.794 368.5,285.5C 371.81,283.854 374.477,281.52 376.5,278.5 Z"/></g>
<g><path style="opacity:0.005" fill="#000000" d="M 234.5,291.5 C 235.167,291.833 235.833,292.167 236.5,292.5C 235.649,294.882 234.316,296.882 232.5,298.5C 233.455,296.254 234.122,293.921 234.5,291.5 Z"/></g>
<g><path style="opacity:0.471" fill="#861f9d" d="M 337.5,288.5 C 342.426,292.859 348.259,294.526 355,293.5C 361.985,294.331 368.152,292.664 373.5,288.5C 374.492,288.328 375.158,288.662 375.5,289.5C 374.128,290.512 372.795,291.512 371.5,292.5C 360.526,296.461 349.526,296.461 338.5,292.5C 337.167,291.5 335.833,290.5 334.5,289.5C 335.391,288.89 336.391,288.557 337.5,288.5 Z"/></g>
<g><path style="opacity:0.646" fill="#862097" d="M 345.5,288.5 C 348.167,288.833 350.833,289.167 353.5,289.5C 355.167,289.5 356.833,289.5 358.5,289.5C 357.036,290.16 355.369,290.493 353.5,290.5C 350.514,290.618 347.848,289.952 345.5,288.5 Z"/></g>
<g><path style="opacity:0.632" fill="#eb5cbb" d="M 242.5,288.5 C 243.42,291.508 244.754,294.341 246.5,297C 243.766,297.132 241.766,295.965 240.5,293.5C 240.796,291.597 241.463,289.93 242.5,288.5 Z"/></g>
<g><path style="opacity:0.576" fill="#8a27a4" d="M 253.5,263.5 C 255.558,274.897 262.225,282.23 273.5,285.5C 271.034,286.634 268.367,286.801 265.5,286C 262.77,284.322 260.77,282.155 259.5,279.5C 256.842,276.197 254.175,272.864 251.5,269.5C 250.359,271.421 250.192,273.421 251,275.5C 253.001,278.331 255.167,280.997 257.5,283.5C 257.5,283.833 257.5,284.167 257.5,284.5C 254.586,283.094 252.086,281.094 250,278.5C 252.686,286.52 258.186,292.02 266.5,295C 268.902,295.814 271.235,295.647 273.5,294.5C 270.769,292.808 268.102,291.142 265.5,289.5C 271.378,290.031 276.711,288.697 281.5,285.5C 279.025,291.781 275.525,297.447 271,302.5C 269.991,304.025 269.491,305.692 269.5,307.5C 270.5,307.5 271.5,307.5 272.5,307.5C 272.5,308.167 272.5,308.833 272.5,309.5C 271.833,309.5 271.167,309.5 270.5,309.5C 269.791,308.596 268.791,308.263 267.5,308.5C 267.5,312.833 267.5,317.167 267.5,321.5C 267.167,325.5 266.833,329.5 266.5,333.5C 266.167,333.5 265.833,333.5 265.5,333.5C 265.167,333.5 264.833,333.5 264.5,333.5C 266.097,325.567 266.597,317.567 266,309.5C 263.983,306.284 261.483,305.95 258.5,308.5C 256.973,308.427 255.973,309.094 255.5,310.5C 253.596,310.738 252.262,311.738 251.5,313.5C 250.833,313.5 250.167,313.5 249.5,313.5C 250.912,311.02 252.578,308.687 254.5,306.5C 252.472,304.059 250.138,303.892 247.5,306C 243.964,309.704 240.298,313.204 236.5,316.5C 236.782,315.222 237.449,314.222 238.5,313.5C 238.5,313.167 238.5,312.833 238.5,312.5C 239.5,312.167 240.167,311.5 240.5,310.5C 243.161,307.829 245.494,304.829 247.5,301.5C 246.168,299.167 244.168,297.834 241.5,297.5C 241.167,296.5 240.5,295.833 239.5,295.5C 239.328,294.508 239.662,293.842 240.5,293.5C 241.766,295.965 243.766,297.132 246.5,297C 244.754,294.341 243.42,291.508 242.5,288.5C 242.796,286.597 243.463,284.93 244.5,283.5C 245.182,287.198 246.682,290.531 249,293.5C 248.649,287.861 248.149,282.194 247.5,276.5C 248.18,271.478 250.18,267.144 253.5,263.5 Z"/></g>
<g><path style="opacity:0.631" fill="#c566e0" d="M 251.5,287.5 C 256.804,291.49 262.47,294.99 268.5,298C 262.273,298.473 257.106,296.306 253,291.5C 252.209,290.255 251.709,288.922 251.5,287.5 Z"/></g>
<g><path style="opacity:0.635" fill="#c366de" d="M 257.5,284.5 C 257.369,285.376 257.702,286.043 258.5,286.5C 260.885,287.661 263.219,288.661 265.5,289.5C 268.102,291.142 270.769,292.808 273.5,294.5C 271.235,295.647 268.902,295.814 266.5,295C 258.186,292.02 252.686,286.52 250,278.5C 252.086,281.094 254.586,283.094 257.5,284.5 Z"/></g>
<g><path style="opacity:0.632" fill="#c668e1" d="M 259.5,279.5 C 258.833,280.833 258.167,282.167 257.5,283.5C 255.167,280.997 253.001,278.331 251,275.5C 250.192,273.421 250.359,271.421 251.5,269.5C 254.175,272.864 256.842,276.197 259.5,279.5 Z"/></g>
<g><path style="opacity:0.561" fill="#84209f" d="M 292.5,280.5 C 292.448,282.903 292.781,285.236 293.5,287.5C 291.536,293.022 290.036,298.689 289,304.5C 292.322,299.701 294.155,294.368 294.5,288.5C 295.391,289.11 296.391,289.443 297.5,289.5C 292.574,307.183 294.074,307.849 302,291.5C 302.195,293.207 302.195,294.874 302,296.5C 303.872,293.404 305.705,290.404 307.5,287.5C 310.167,288.167 312.833,288.833 315.5,289.5C 314.5,290.833 313.5,292.167 312.5,293.5C 305.248,301.121 296.582,306.121 286.5,308.5C 283.772,308.171 281.438,308.837 279.5,310.5C 276.27,310.561 274.437,312.228 274,315.5C 269.934,337.839 264.6,359.839 258,381.5C 258.285,365.241 260.452,349.241 264.5,333.5C 264.833,333.5 265.167,333.5 265.5,333.5C 264.556,339.821 264.056,346.154 264,352.5C 265.106,346.801 266.273,341.134 267.5,335.5C 269.49,327.512 271.49,319.512 273.5,311.5C 273.457,310.584 273.124,309.917 272.5,309.5C 272.5,308.833 272.5,308.167 272.5,307.5C 274.167,306.167 275.833,304.833 277.5,303.5C 277.489,305.017 276.823,306.184 275.5,307C 282.155,309.254 285.988,307.087 287,300.5C 285.71,302.792 284.043,304.792 282,306.5C 281.333,305.167 281.333,303.833 282,302.5C 286.893,295.719 290.393,288.386 292.5,280.5 Z"/></g>
<g><path style="opacity:0.632" fill="#bd5fd8" d="M 293.5,287.5 C 294.167,287.5 294.5,287.833 294.5,288.5C 294.155,294.368 292.322,299.701 289,304.5C 290.036,298.689 291.536,293.022 293.5,287.5 Z"/></g>
<g><path style="opacity:0.017" fill="#010101" d="M 239.5,295.5 C 240.5,295.833 241.167,296.5 241.5,297.5C 239.43,303.396 235.263,307.063 229,308.5C 224.437,307.625 223.604,305.625 226.5,302.5C 226.47,303.497 226.97,304.164 228,304.5C 233.517,303.466 237.35,300.466 239.5,295.5 Z"/></g>
<g><path style="opacity:0.631" fill="#c768e2" d="M 253.5,299.5 C 258.045,301.293 262.712,302.793 267.5,304C 262.778,306.182 258.278,305.682 254,302.5C 253.517,301.552 253.351,300.552 253.5,299.5 Z"/></g>
<g><path style="opacity:0.586" fill="#383838" d="M 173.5,308.5 C 176.5,309.833 179.5,309.833 182.5,308.5C 182.957,312.584 182.29,316.417 180.5,320C 177.975,320.896 175.808,320.396 174,318.5C 173.502,315.183 173.335,311.85 173.5,308.5 Z M 177.5,310.5 C 178.117,310.611 178.617,310.944 179,311.5C 179.495,313.473 179.662,315.473 179.5,317.5C 178.5,317.5 177.5,317.5 176.5,317.5C 176.298,315.05 176.631,312.717 177.5,310.5 Z"/></g>
<g><path style="opacity:0.549" fill="#353535" d="M 185.5,308.5 C 189.871,307.534 192.871,309.034 194.5,313C 192.316,314.929 192.65,316.763 195.5,318.5C 194.965,320.101 193.965,320.601 192.5,320C 191.845,318.513 190.845,317.347 189.5,316.5C 189.64,317.569 189.64,318.736 189.5,320C 187.597,320.774 185.93,320.44 184.5,319C 185.456,315.606 185.789,312.106 185.5,308.5 Z M 188.5,311.5 C 191.001,311.511 191.168,312.178 189,313.5C 188.536,312.906 188.369,312.239 188.5,311.5 Z"/></g>
<g><path style="opacity:0.478" fill="#3d3c3d" d="M 240.5,310.5 C 240.167,311.5 239.5,312.167 238.5,312.5C 237.167,312.833 237.167,313.167 238.5,313.5C 237.449,314.222 236.782,315.222 236.5,316.5C 236.672,317.492 236.338,318.158 235.5,318.5C 234.391,318.557 233.391,318.89 232.5,319.5C 231.601,318.006 231.935,316.506 233.5,315C 231.676,310.978 233.009,308.812 237.5,308.5C 239.03,308.64 240.03,309.307 240.5,310.5 Z"/></g>
<g><path style="opacity:0.42" fill="#3a3a3a" d="M 292.5,308.5 C 297.378,307.874 300.045,310.041 300.5,315C 299.592,319.586 296.926,321.252 292.5,320C 288.801,316.225 288.801,312.392 292.5,308.5 Z M 293.5,311.5 C 296.966,312.109 297.966,313.942 296.5,317C 295.216,317.684 294.049,317.517 293,316.5C 292.616,314.803 292.782,313.137 293.5,311.5 Z"/></g>
<g><path style="opacity:0.525" fill="#333333" d="M 339.5,308.5 C 342.604,307.971 344.937,308.971 346.5,311.5C 346.192,312.308 345.692,312.975 345,313.5C 342.468,310.628 340.635,310.961 339.5,314.5C 340.635,318.039 342.468,318.372 345,315.5C 346.951,317.137 346.784,318.637 344.5,320C 338.714,320.881 336.214,318.381 337,312.5C 337.662,311.016 338.496,309.683 339.5,308.5 Z"/></g>
<g><path style="opacity:0.539" fill="#383838" d="M 358.5,318.5 C 356.264,317.611 354.264,316.278 352.5,314.5C 351.224,315.614 351.224,316.614 352.5,317.5C 352.833,317.5 353.167,317.5 353.5,317.5C 353.001,320.389 351.501,321.056 349,319.5C 349.737,315.869 349.571,312.203 348.5,308.5C 350.857,308.337 353.19,308.503 355.5,309C 357.673,310.865 358.007,313.031 356.5,315.5C 357.193,316.518 357.859,317.518 358.5,318.5 Z M 352.5,311.5 C 355.001,311.511 355.168,312.178 353,313.5C 352.536,312.906 352.369,312.239 352.5,311.5 Z"/></g>
<g><path style="opacity:0.431" fill="#4f4f4f" d="M 368.5,312.5 C 367.134,310.649 365.467,310.316 363.5,311.5C 363.938,312.506 364.604,312.506 365.5,311.5C 366.614,312.723 366.781,314.056 366,315.5C 364.844,314.007 364.01,314.174 363.5,316C 363.57,316.765 363.903,317.265 364.5,317.5C 365.791,317.737 366.791,317.404 367.5,316.5C 367.5,315.833 367.5,315.167 367.5,314.5C 369.048,314.821 369.715,315.821 369.5,317.5C 366.713,318.477 363.713,318.81 360.5,318.5C 361.628,315.219 361.628,311.885 360.5,308.5C 363.5,308.5 366.5,308.5 369.5,308.5C 369.768,310.099 369.434,311.432 368.5,312.5 Z"/></g>
<g><path style="opacity:0.527" fill="#333333" d="M 373.5,308.5 C 375.288,308.215 376.955,308.548 378.5,309.5C 379.453,312.701 380.786,315.701 382.5,318.5C 380.239,321.255 378.406,320.922 377,317.5C 376.121,320.346 374.454,321.013 372,319.5C 372.687,317.284 373.52,314.951 374.5,312.5C 373.754,311.264 373.421,309.93 373.5,308.5 Z"/></g>
<g><path style="opacity:0.546" fill="#4e4e4e" d="M 403.5,318.5 C 401.167,318.5 398.833,318.5 396.5,318.5C 396.842,317.662 397.508,317.328 398.5,317.5C 399.468,315.393 399.802,313.059 399.5,310.5C 398.5,310.5 397.5,310.5 396.5,310.5C 398.279,308.656 400.612,307.99 403.5,308.5C 402.871,310.465 402.204,312.465 401.5,314.5C 401.803,316.114 402.47,317.448 403.5,318.5 Z"/></g>
<g><path style="opacity:0.42" fill="#3a3a3a" d="M 409.5,308.5 C 414.378,307.874 417.045,310.041 417.5,315C 416.592,319.586 413.926,321.252 409.5,320C 405.801,316.225 405.801,312.392 409.5,308.5 Z M 410.5,311.5 C 413.966,312.109 414.966,313.942 413.5,317C 412.216,317.684 411.049,317.517 410,316.5C 409.616,314.803 409.782,313.137 410.5,311.5 Z"/></g>
<g><path style="opacity:0.478" fill="#393939" d="M 439.5,317.5 C 436.789,320.148 434.122,320.148 431.5,317.5C 431.914,315.319 432.081,312.985 432,310.5C 434.135,308.722 436.635,308.055 439.5,308.5C 438.459,311.542 438.459,314.542 439.5,317.5 Z"/></g>
<g><path style="opacity:0.625" fill="#d3ced4" d="M 249.5,313.5 C 248.599,314.29 247.932,315.29 247.5,316.5C 247.167,316.5 246.833,316.5 246.5,316.5C 245.883,316.389 245.383,316.056 245,315.5C 244.51,316.793 244.343,318.127 244.5,319.5C 236.895,328.774 228.562,337.44 219.5,345.5C 216.882,347.331 214.215,348.831 211.5,350C 220.1,339.908 228.1,329.408 235.5,318.5C 236.338,318.158 236.672,317.492 236.5,316.5C 240.298,313.204 243.964,309.704 247.5,306C 250.138,303.892 252.472,304.059 254.5,306.5C 252.578,308.687 250.912,311.02 249.5,313.5 Z"/></g>
<g><path style="opacity:0.631" fill="#dad5db" d="M 270.5,309.5 C 271.167,309.5 271.833,309.5 272.5,309.5C 273.124,309.917 273.457,310.584 273.5,311.5C 271.49,319.512 269.49,327.512 267.5,335.5C 266.662,335.158 266.328,334.492 266.5,333.5C 266.833,329.5 267.167,325.5 267.5,321.5C 267.869,317.232 268.869,313.232 270.5,309.5 Z"/></g>
<g><path style="opacity:0.528" fill="#373737" d="M 286.5,308.5 C 287.788,310.035 287.788,311.701 286.5,313.5C 284.063,310.563 282.397,310.896 281.5,314.5C 282.635,318.039 284.468,318.372 287,315.5C 289.113,317.271 288.947,318.771 286.5,320C 279.23,320.652 276.897,317.485 279.5,310.5C 281.438,308.837 283.772,308.171 286.5,308.5 Z"/></g>
<g><path style="opacity:0.547" fill="#353535" d="M 150.5,308.5 C 151.5,308.5 152.5,308.5 153.5,308.5C 154.614,313.629 155.281,313.629 155.5,308.5C 156.833,308.5 158.167,308.5 159.5,308.5C 158.8,311.063 157.8,313.563 156.5,316C 156.759,317.261 157.426,318.261 158.5,319C 155.94,321.116 153.607,320.949 151.5,318.5C 152.167,317.833 152.833,317.167 153.5,316.5C 151.506,314.184 150.506,311.518 150.5,308.5 Z"/></g>
<g><path style="opacity:0.528" fill="#353535" d="M 164.5,308.5 C 170.052,308.911 172.218,311.911 171,317.5C 168,321.5 165,321.5 162,317.5C 160.927,313.9 161.76,310.9 164.5,308.5 Z M 165.5,311.5 C 167.484,311.484 168.484,312.484 168.5,314.5C 167.167,318.5 165.833,318.5 164.5,314.5C 164.685,313.416 165.018,312.416 165.5,311.5 Z"/></g>
<g><path style="opacity:0.631" fill="#b384c0" d="M 270.5,309.5 C 268.869,313.232 267.869,317.232 267.5,321.5C 267.5,317.167 267.5,312.833 267.5,308.5C 268.791,308.263 269.791,308.596 270.5,309.5 Z"/></g>
<g><path style="opacity:0.462" fill="#353535" d="M 313.5,308.5 C 314.833,308.5 316.167,308.5 317.5,308.5C 318.167,312.5 318.833,312.5 319.5,308.5C 320.978,308.238 322.311,308.571 323.5,309.5C 322.167,311.833 320.833,314.167 319.5,316.5C 322.178,318.49 321.845,319.823 318.5,320.5C 315.366,319.892 314.699,318.226 316.5,315.5C 315.023,313.361 314.023,311.028 313.5,308.5 Z"/></g>
<g><path style="opacity:0.012" fill="#020202" d="M 368.5,312.5 C 368.167,313.167 367.833,313.833 367.5,314.5C 367.5,315.167 367.5,315.833 367.5,316.5C 366.209,316.263 365.209,316.596 364.5,317.5C 363.903,317.265 363.57,316.765 363.5,316C 364.01,314.174 364.844,314.007 366,315.5C 366.781,314.056 366.614,312.723 365.5,311.5C 364.604,312.506 363.938,312.506 363.5,311.5C 365.467,310.316 367.134,310.649 368.5,312.5 Z"/></g>
<g><path style="opacity:0.008" fill="#000000" d="M 392.5,309.5 C 393.844,311.185 393.677,312.852 392,314.5C 391.667,314.167 391.333,313.833 391,313.5C 390.51,314.793 390.343,316.127 390.5,317.5C 389.203,315.307 389.203,312.973 390.5,310.5C 392.005,313.131 392.671,312.797 392.5,309.5 Z"/></g>
<g><path style="opacity:0.008" fill="#000000" d="M 396.5,310.5 C 397.5,310.5 398.5,310.5 399.5,310.5C 399.802,313.059 399.468,315.393 398.5,317.5C 398.815,314.789 398.148,312.456 396.5,310.5 Z"/></g>
<g><path style="opacity:0.006" fill="#000000" d="M 418.5,310.5 C 419.725,311.152 420.392,312.319 420.5,314C 420.486,315.385 420.152,316.551 419.5,317.5C 419.702,315.05 419.369,312.717 418.5,310.5 Z"/></g>
<g><path style="opacity:0.01" fill="#000000" d="M 428.5,310.5 C 428.665,313.518 428.498,316.518 428,319.5C 425.851,320.84 424.684,320.173 424.5,317.5C 425.15,317.804 425.817,318.137 426.5,318.5C 427.168,315.694 427.834,313.028 428.5,310.5 Z"/></g>
<g><path style="opacity:0.609" fill="#323232" d="M 258.5,308.5 C 259.29,309.609 259.79,310.942 260,312.5C 260.49,311.207 260.657,309.873 260.5,308.5C 261.833,308.5 263.167,308.5 264.5,308.5C 263.8,311.063 262.8,313.563 261.5,316C 261.759,317.261 262.426,318.261 263.5,319C 261.459,320.741 259.292,320.908 257,319.5C 256.873,318.223 257.373,317.057 258.5,316C 257.368,314.235 256.368,312.402 255.5,310.5C 255.973,309.094 256.973,308.427 258.5,308.5 Z"/></g>
<g><path style="opacity:0.492" fill="#3b3b3b" d="M 310.5,316.5 C 309.848,317.725 308.681,318.392 307,318.5C 305.615,318.486 304.449,318.152 303.5,317.5C 303.511,315.983 304.177,314.816 305.5,314C 304.552,313.517 303.552,313.351 302.5,313.5C 302.421,312.07 302.754,310.736 303.5,309.5C 305.743,308.526 308.076,308.192 310.5,308.5C 310.822,310.722 310.155,312.556 308.5,314C 309.756,314.417 310.423,315.25 310.5,316.5 Z M 307.5,315.5 C 308.773,316.077 308.773,316.743 307.5,317.5C 306.537,317.03 306.537,316.363 307.5,315.5 Z"/></g>
<g><path style="opacity:0.145" fill="#464646" d="M 392.5,309.5 C 392.671,312.797 392.005,313.131 390.5,310.5C 389.203,312.973 389.203,315.307 390.5,317.5C 391.167,317.5 391.5,317.833 391.5,318.5C 389.5,318.5 387.5,318.5 385.5,318.5C 387.243,316.874 387.743,314.874 387,312.5C 386.147,314.125 385.147,314.458 384,313.5C 383.405,312.101 383.572,310.768 384.5,309.5C 387.309,308.2 389.976,308.2 392.5,309.5 Z"/></g>
<g><path style="opacity:0.588" fill="#454545" d="M 428.5,310.5 C 427.834,313.028 427.168,315.694 426.5,318.5C 425.817,318.137 425.15,317.804 424.5,317.5C 423.833,317.5 423.5,317.833 423.5,318.5C 422.167,318.5 420.833,318.5 419.5,318.5C 419.5,318.167 419.5,317.833 419.5,317.5C 420.152,316.551 420.486,315.385 420.5,314C 420.392,312.319 419.725,311.152 418.5,310.5C 418.62,309.414 419.287,308.747 420.5,308.5C 422.353,309.189 423.519,310.522 424,312.5C 424.49,311.207 424.657,309.873 424.5,308.5C 426.483,308.157 427.817,308.824 428.5,310.5 Z"/></g>
<g><path style="opacity:0.393" fill="#373737" d="M 210.5,315.5 C 208.129,309.204 210.129,307.204 216.5,309.5C 216.568,312.398 216.735,315.398 217,318.5C 214.847,320.444 212.347,320.944 209.5,320C 208.084,318.085 208.418,316.585 210.5,315.5 Z M 210.5,315.5 C 211.922,315.709 213.255,316.209 214.5,317C 212.648,317.773 211.314,317.273 210.5,315.5 Z"/></g>
<g><path style="opacity:0.607" fill="#333333" d="M 220.5,308.5 C 222.467,308.261 224.301,308.594 226,309.5C 227.027,312.754 228.527,315.754 230.5,318.5C 228.185,321.189 226.185,320.855 224.5,317.5C 224.264,318.247 223.93,319.08 223.5,320C 222.216,320.684 221.049,320.517 220,319.5C 220.282,317.384 220.782,315.217 221.5,313C 221.227,311.467 220.894,309.967 220.5,308.5 Z"/></g>
<g><path style="opacity:0.016" fill="#020202" d="M 358.5,318.5 C 359.478,319.297 359.145,319.964 357.5,320.5C 356.148,319.476 354.815,318.476 353.5,317.5C 353.167,316.167 352.833,316.167 352.5,317.5C 351.224,316.614 351.224,315.614 352.5,314.5C 354.264,316.278 356.264,317.611 358.5,318.5 Z"/></g>
<g><path style="opacity:0.019" fill="#000000" d="M 310.5,316.5 C 311.791,317.542 311.791,318.708 310.5,320C 308.167,320.667 305.833,320.667 303.5,320C 302.226,319.023 302.226,318.189 303.5,317.5C 304.449,318.152 305.615,318.486 307,318.5C 308.681,318.392 309.848,317.725 310.5,316.5 Z"/></g>
<g><path style="opacity:0.605" fill="#3d3c3e" d="M 249.5,313.5 C 250.167,313.5 250.833,313.5 251.5,313.5C 252.895,319.77 250.562,321.77 244.5,319.5C 244.343,318.127 244.51,316.793 245,315.5C 245.383,316.056 245.883,316.389 246.5,316.5C 249.143,317.507 249.477,317.507 247.5,316.5C 247.932,315.29 248.599,314.29 249.5,313.5 Z"/></g>
<g><path style="opacity:0.021" fill="#000000" d="M 369.5,317.5 C 370.774,318.189 370.774,319.023 369.5,320C 366.833,320.667 364.167,320.667 361.5,320C 360.944,319.617 360.611,319.117 360.5,318.5C 363.713,318.81 366.713,318.477 369.5,317.5 Z"/></g>
<g><path style="opacity:0.013" fill="#000000" d="M 431.5,317.5 C 434.122,320.148 436.789,320.148 439.5,317.5C 439.126,319.95 437.626,320.95 435,320.5C 433.833,320.333 432.667,320.167 431.5,320C 430.226,319.023 430.226,318.189 431.5,317.5 Z"/></g>
<g><path style="opacity:0.021" fill="#000000" d="M 385.5,318.5 C 387.5,318.5 389.5,318.5 391.5,318.5C 392.738,318.81 392.738,319.31 391.5,320C 389.011,320.941 387.011,320.441 385.5,318.5 Z"/></g>
<g><path style="opacity:0.022" fill="#000000" d="M 396.5,318.5 C 398.833,318.5 401.167,318.5 403.5,318.5C 404.738,318.81 404.738,319.31 403.5,320C 402.5,320.167 401.5,320.333 400.5,320.5C 398.645,320.66 397.312,319.993 396.5,318.5 Z"/></g>
<g><path style="opacity:0.021" fill="#000000" d="M 419.5,318.5 C 420.833,318.5 422.167,318.5 423.5,318.5C 422.118,320.898 420.451,321.065 418.5,319C 418.728,318.601 419.062,318.435 419.5,318.5 Z"/></g>
<g><path style="opacity:0.5" fill="#8426a0" d="M 235.5,318.5 C 228.1,329.408 220.1,339.908 211.5,350C 214.215,348.831 216.882,347.331 219.5,345.5C 216.168,349.664 212.335,353.331 208,356.5C 209.187,350.781 211.52,345.447 215,340.5C 220.668,333.335 226.501,326.335 232.5,319.5C 233.391,318.89 234.391,318.557 235.5,318.5 Z"/></g>
<g><path style="opacity:0.631" fill="#b88ec3" d="M 265.5,333.5 C 265.833,333.5 266.167,333.5 266.5,333.5C 266.328,334.492 266.662,335.158 267.5,335.5C 266.273,341.134 265.106,346.801 264,352.5C 264.056,346.154 264.556,339.821 265.5,333.5 Z"/></g>
</svg>
